<?xml version="1.0" standalone="no"?>
<!DOCTYPE svg PUBLIC "-//W3C//DTD SVG 20010904//EN"
 "http://www.w3.org/TR/2001/REC-SVG-20010904/DTD/svg10.dtd">
<svg version="1.0" xmlns="http://www.w3.org/2000/svg"
 width="868.000000pt" height="868.000000pt" viewBox="0 0 868.000000 868.000000"
 preserveAspectRatio="xMidYMid meet">
<metadata>
Created by potrace 1.14, written by Peter Selinger 2001-2017
</metadata>
<g transform="translate(0.000000,868.000000) scale(0.100000,-0.100000)"
fill="#000000" stroke="none">
<path d="M4088 8675 c-2 -2 -44 -6 -93 -9 -50 -2 -90 -5 -90 -6 0 -1 -18 -4
-40 -6 -122 -12 -177 -20 -280 -39 -97 -18 -114 -21 -185 -36 -30 -6 -62 -13
-70 -14 -8 -2 -15 -4 -15 -5 0 -1 -7 -3 -15 -5 -8 -1 -40 -10 -70 -19 -30 -9
-57 -16 -60 -16 -12 -1 -91 -24 -157 -46 -40 -14 -81 -27 -90 -29 -24 -5 -186
-68 -248 -96 -27 -12 -56 -23 -62 -25 -7 -1 -70 -30 -140 -65 -71 -34 -131
-62 -135 -61 -5 1 -8 -2 -8 -8 0 -5 -5 -10 -10 -10 -14 0 -194 -102 -198 -112
-2 -4 -9 -8 -15 -8 -29 -1 -443 -291 -537 -377 -8 -7 -35 -30 -60 -51 -119
-99 -318 -297 -455 -453 -63 -71 -225 -278 -225 -288 0 -5 -4 -11 -9 -13 -19
-7 -285 -427 -312 -493 -2 -5 -22 -44 -43 -85 -22 -41 -41 -82 -42 -90 -2 -8
-8 -16 -13 -18 -6 -2 -11 -10 -11 -18 0 -8 -9 -33 -20 -55 -50 -97 -197 -495
-214 -579 -3 -14 -21 -83 -40 -155 -19 -71 -35 -131 -36 -132 0 -2 0 -4 -1 -5
0 -2 -2 -16 -4 -33 -3 -36 -14 -96 -19 -104 -2 -3 -7 -28 -11 -56 -4 -27 -8
-59 -10 -70 -1 -11 -6 -47 -10 -80 -3 -33 -9 -76 -11 -95 -19 -138 -26 -682
-11 -830 4 -36 9 -90 12 -120 8 -87 14 -131 31 -230 13 -76 18 -100 28 -150 3
-14 11 -50 17 -80 23 -111 82 -328 109 -395 6 -16 11 -31 11 -32 -1 -2 -1 -4
0 -5 0 -2 2 -10 4 -18 4 -18 62 -173 80 -215 7 -16 23 -54 35 -84 11 -29 51
-115 87 -190 36 -75 67 -138 67 -141 2 -6 44 -79 88 -153 15 -26 28 -52 28
-57 0 -6 5 -10 10 -10 6 0 10 -5 10 -10 0 -10 86 -147 100 -160 3 -3 10 -13
15 -22 24 -40 105 -155 124 -175 12 -12 21 -26 21 -32 0 -5 3 -11 8 -13 4 -1
34 -37 67 -78 33 -41 73 -90 90 -109 97 -109 129 -142 211 -225 197 -198 422
-385 625 -520 24 -17 54 -39 67 -50 12 -11 22 -16 22 -12 0 4 15 -4 33 -18 42
-32 264 -160 350 -201 37 -19 75 -39 84 -47 9 -7 17 -11 17 -9 1 2 33 -11 71
-28 75 -35 360 -150 385 -156 8 -2 44 -12 80 -24 36 -12 68 -20 71 -19 3 2 13
-3 21 -10 8 -6 28 -14 44 -16 16 -3 56 -12 89 -21 33 -10 69 -19 80 -22 57
-14 103 -24 130 -29 17 -3 75 -14 130 -24 169 -32 203 -36 465 -59 93 -9 601
-5 690 4 25 2 70 7 100 11 30 3 65 7 78 7 12 1 22 3 22 6 0 4 15 6 33 6 40 1
87 8 219 35 57 12 114 24 128 26 86 16 370 97 402 115 10 5 26 9 36 9 10 0 22
3 26 7 3 4 12 8 19 9 7 1 26 8 42 15 17 6 37 13 45 15 8 2 23 7 35 13 11 6 60
27 110 47 49 20 115 49 147 64 32 16 58 25 58 22 0 -4 4 -2 8 3 4 6 34 24 67
40 58 29 230 123 270 148 11 7 39 24 62 39 23 16 46 28 52 28 6 0 11 5 11 11
0 5 4 8 9 5 5 -3 11 1 15 9 3 8 12 15 21 15 8 0 15 5 15 10 0 6 5 10 10 10 6
0 16 4 23 10 7 5 50 38 97 71 47 34 87 66 88 71 2 4 8 8 14 8 8 0 182 142 267
219 116 104 411 410 411 426 0 2 11 16 25 31 32 34 49 56 136 174 39 52 76
102 83 111 7 8 28 41 47 72 18 31 37 57 41 57 5 0 8 5 8 11 0 6 13 29 29 52
62 92 285 515 296 562 1 6 7 23 13 38 7 16 21 52 33 80 11 29 26 63 31 77 25
61 91 265 123 381 31 110 41 154 61 259 3 14 9 41 14 60 14 52 30 161 54 360
14 108 21 282 21 485 0 241 -6 351 -30 535 -3 25 -8 61 -10 80 -2 19 -7 49
-10 65 -4 17 -8 44 -11 61 -2 17 -13 73 -25 125 -11 52 -22 103 -24 114 -13
75 -113 409 -155 515 -116 297 -234 539 -367 755 -58 93 -181 276 -192 285 -4
3 -15 18 -24 33 -10 16 -25 36 -32 45 -8 9 -46 57 -85 106 -39 49 -82 100 -95
112 -14 13 -25 26 -25 29 0 3 -15 21 -32 39 -174 178 -224 229 -293 292 -89
81 -108 97 -156 136 -19 14 -45 36 -59 48 -14 12 -35 30 -48 41 -12 10 -27 19
-32 19 -6 0 -13 7 -16 15 -4 8 -10 15 -15 15 -8 0 -69 43 -119 83 -20 17 -281
182 -300 190 -8 4 -31 17 -50 29 -19 11 -78 43 -130 70 -52 27 -100 54 -107
60 -7 6 -13 8 -13 4 0 -3 -26 7 -57 23 -126 63 -409 171 -563 216 -37 11 -59
17 -71 19 -8 2 -21 6 -29 9 -8 3 -51 15 -95 26 -80 20 -104 25 -160 36 -16 3
-41 8 -55 11 -14 4 -34 8 -45 9 -11 2 -36 6 -55 10 -56 12 -82 15 -130 20 -25
2 -45 5 -45 5 0 3 -60 11 -205 26 -57 6 -617 14 -622 9z"/>
</g>
</svg>
